<?xml version="1.0" encoding="UTF-8"?>
<svg id="Layer_1" data-name="Layer 1" xmlns="http://www.w3.org/2000/svg" viewBox="0 0 1080 1080">
  <defs>
    <style>
      .cls-1 {
        fill: #306c3e;
      }

      .cls-2 {
        fill: #8c5f3e;
      }
    </style>
  </defs>
  <path class="cls-1" d="M675.84,977.28c52.89-21.88,92.21-48.77,119.54-100.78,70.48-134.14-21.04-297.19-176.22-284.58-24.71-18.09-46.88-40.14-72.06-57.57-14.47-10.02-22.02-15.14-40.2-7.76-15.06,6.11-22.74,20.27-41.69,17.66-21.65-2.99.76-30.6,7.58-38.33,43.48-49.25,85.56-15.68,131.03,7.23,26.83,13.52,57.75,15.86,86.42,23.98,116.24,32.91,192.03,128.66,187.24,251.56-8.8,226-255.35,305.16-446.47,266.88-97.71-19.57-207.34-79.48-218.83-189.17-10.37-99.01,57.91-159.65,139.8-198.09,8.11-3.81,28.9-14.03,36.57-15.26,10.47-1.68,15.82,3.1,24.17,8.01,6.32,3.71,23.45,13.67,27.85,18.23,1.99,2.07,2.45,3.88,1.11,6.51-64.73,29.25-150.05,55.59-168.76,133.86-18.95,79.26,44,132.01,109.16,158.6,10.82,4.42,21.19,9.15,32.64,12.48,65.64,19.06,164.38,20.35,229.44-.96,10.55-3.46,21.39-8.22,31.68-12.48Z"/>
  <path class="cls-1" d="M754.85,210.9c-2.5-2.28-6.32-10.47-8.71-13.84-39.2-55.27-89.55-96.25-156.29-113.47-166.45-42.94-350.24,83.04-322.81,264.25,13.41,88.55,88.17,165.3,176.43,180.22.19,22.64,16.4,32.31,37.71,27.52,19.14-4.3,26.09-23.92,49.26-16.09,14.98,5.06,60.45,42.88,73.42,55.22,6.14,5.84,13.95,13.82,7.23,22.62-8.39,10.99-22.73-1.68-30.18-7.34-8.94-6.79-17.8-15.81-27.24-21.72-4.96-3.1-11.52-7.13-8.43,2.67,9.89,9.01,21.44,16.31,31.27,25.36,6.77,6.23,19.87,16.86,7.49,24.82-8.69,5.59-15.35-1.38-21.89-6.58-8.38-6.65-21.45-21.38-29.93-25.75-2.55-1.31-6.27-1.17-5.95,2.09.87,9.07,35.5,26.44,36.4,38.57,1.29,17.34-16.23,8.44-23.98,2.79-7.17-5.24-18.63-18.51-25.44-21.59-3.3-1.5-6.33-1.2-4.96,3,1.58,4.83,13.24,11.54,17.38,15.29,6.06,5.49,18.49,18.86,5.25,23.53s-17.34-7.17-26.61-8.88c-10.62-1.95-21.86,6.89-17.55-13.66-15.08,6.19-25.51,1.17-21.12-16.32-3.99,1.37-5.41,3.57-10.03,3.89-14.21.99-14.94-10.33-11.09-21.17-2.74-.11-3.72,3.15-6,4.07-4.84,1.96-13.17,1.42-16.6-3.07-6.45-8.45,2.87-16.51,1.36-19.1-32.87-19.22-67.99-32.55-99.05-55.04-162.1-117.39-157.46-351.34,4.8-466.2C466.73-20.54,661.82-.04,769.9,131.06c5.61,6.81,26.37,33.22,26.87,40.41.41,5.91-7.17,15.14-10.99,19.58-2.88,3.34-18.52,19.54-21.25,20.98-3.12,1.64-7.06,1.25-9.67-1.13Z"/>
  <path class="cls-1" d="M607.68,240.97c-1.76-.41-2.66.59-3.98,1.3-43.87,23.43-98.3,67.13-129.42,105.77-1.55,1.93-8.59,12.67-9.34,12.93-.6.21-3.23.29-3.19-.51,2.49-15.26,3.03-29.67,7.01-44.83,21.35-81.36,104.88-128.78,185.45-131.35,12.1-.39,12.55,2.93,13.95,13.97,12.91,101.91-53.88,188.44-151.66,210.24-6.22,1.39-37.93,5.93-40.28,7.72-3.72,2.83-8.74,23.56-9.53,28.87-1.07,7.2,1.62,15.39-8.72,18.15-16.45,4.38-9.23-22.57-7.24-31.23,18.46-80.68,99.43-138.35,156.97-191.02Z"/>
  <path class="cls-2" d="M675.84,977.28c-10.29,4.26-21.13,9.02-31.68,12.48,2.38-6.98.12-13.97-.04-20.6-1.06-44.93,1.27-90-.43-134.93l-113.28-70.97-4.62,2.05-109.85,68.23-1.26,7.86.05,149.32c-11.45-3.33-21.82-8.06-32.64-12.48,5.49-6.5,1.99-16.13,1.88-23.48-.44-30.07,2.42-61.82,1.04-91.28-.71-15.16-5.56-30.93-1.06-45.86l139.89-88.83c2.48-1.55,5.54-1.37,8.28-.89,44.35,28.41,91.11,53.77,135.01,82.9,2.84,1.88,5.94,3.58,8.23,6.17l.49,160.31Z"/>
  <path class="cls-1" d="M440.54,367.57c-50.59-2.69-94.23-43.21-100.58-93.61-2-15.85.2-30.97,3.75-46.4,30.52,2.57,59.81,18.83,77.55,43.82,20.1,28.31,25.39,62.2,19.27,96.19Z"/>
  <path class="cls-2" d="M456,872.64c.16-.25,4.79-1.41,5.77-.55,19.56,11.04,40.47,20.06,59.51,31.75v82.56c0,4.26-14.95-2.34-16.97-3.19-16.86-7.11-31.94-18.48-48.31-26.57v-84Z"/>
  <path class="cls-2" d="M538.56,986.88v-84.48l61.14-31.56c3.38-.3,4.03,10.3,4.19,12.79,1.16,18.33-1.43,37.25-1.05,55.77.14,6.93,4.17,15.71-3.46,20.46-20.58,7.81-38.95,23.35-60.82,27.02Z"/>
  <path class="cls-2" d="M583.68,858.25c.25,1.46-.11,2.24-.9,3.41-2.3,3.4-25.77,14.45-31.09,16.91-4.19,1.93-16.76,8.37-20.34,8.54-2.54.12-4.61-.98-6.88-1.82-13.14-4.85-29.98-13.29-42.9-19.5-2.48-1.19-5.25-2.33-7.32-4.18-.04-2.43,26.95-14.33,31.01-16.01,5.75-2.37,18.69-8.37,24.21-8.5,15.58-.37,37.94,19.49,54.2,21.16Z"/>
</svg>